<?xml version="1.0" encoding="UTF-8" standalone="no"?>
<!DOCTYPE svg PUBLIC "-//W3C//DTD SVG 1.1//EN" "http://www.w3.org/Graphics/SVG/1.1/DTD/svg11.dtd">
<svg width="100%" height="100%" viewBox="0 0 775 396" version="1.1" xmlns="http://www.w3.org/2000/svg" xmlns:xlink="http://www.w3.org/1999/xlink" xml:space="preserve" xmlns:serif="http://www.serif.com/" style="fill-rule:evenodd;clip-rule:evenodd;stroke-linejoin:round;stroke-miterlimit:2;">
    <g transform="matrix(1,0,0,1,-3721.3375,-174.054167)">
        <g transform="matrix(4.166667,0,0,4.166667,3383.71875,0)">
            <g transform="matrix(1,0,0,1,88.0393,70.4714)">
                <path d="M0,-18.112L22.746,10.586L31.021,10.586L-0.136,-28.698L-6.786,-28.698L-6.786,10.586L0,10.586L0,-18.112Z" style="fill:rgb(35,31,32);fill-rule:nonzero;"/>
            </g>
        </g>
        <g transform="matrix(4.166667,0,0,4.166667,3383.71875,0)">
            <g transform="matrix(1,0,0,1,153.4583,115.0548)">
                <path d="M0,9.374L-17.23,-12.351L-25.515,-12.351L1.493,21.725L6.786,21.725L6.786,-12.351L0,-12.351L0,9.374Z" style="fill:rgb(35,31,32);fill-rule:nonzero;"/>
            </g>
        </g>
        <g transform="matrix(4.166667,0,0,4.166667,3383.71875,0)">
            <g transform="matrix(-1,0,0,1,313.702,-55.722)">
                <rect x="153.458" y="97.495" width="6.786" height="39.285" style="fill:rgb(35,31,32);"/>
            </g>
        </g>
        <g transform="matrix(4.166667,0,0,4.166667,3383.71875,0)">
            <g transform="matrix(1,0,0,1,0,60.931)">
                <rect x="81.253" y="41.773" width="6.786" height="34.076" style="fill:rgb(35,31,32);"/>
            </g>
        </g>
        <g transform="matrix(4.166667,0,0,4.166667,3383.71875,0)">
            <g transform="matrix(-1,0,0,1,526.516,-55.722)">
                <rect x="259.729" y="97.495" width="7.058" height="39.285" style="fill:rgb(35,31,32);"/>
            </g>
        </g>
        <g transform="matrix(4.166667,0,0,4.166667,3383.71875,0)">
            <g transform="matrix(1,0,0,1,0,60.931)">
                <rect x="191.867" y="41.773" width="7.058" height="34.076" style="fill:rgb(35,31,32);"/>
            </g>
        </g>
        <g transform="matrix(4.166667,0,0,4.166667,3383.71875,0)">
            <g transform="matrix(1,0,0,1,0,60.931)">
                <rect x="259.73" y="41.773" width="7.058" height="34.076" style="fill:rgb(35,31,32);"/>
            </g>
        </g>
        <g transform="matrix(4.166667,0,0,4.166667,3383.71875,0)">
            <g transform="matrix(-1,0,0,1,390.792,-55.722)">
                <rect x="191.867" y="97.495" width="7.058" height="39.285" style="fill:rgb(35,31,32);"/>
            </g>
        </g>
        <g transform="matrix(4.166667,0,0,4.166667,3383.71875,0)">
            <g transform="matrix(1,0,0,1,86.3225,87.0654)">
                <path d="M0,9.731C0.746,9.731 1.425,9.612 2.035,9.374C2.646,9.135 3.166,8.801 3.593,8.372C4.021,7.942 4.353,7.431 4.591,6.838C4.828,6.245 4.947,5.601 4.947,4.906L4.947,4.865C4.947,4.17 4.828,3.523 4.591,2.923C4.353,2.324 4.021,1.809 3.593,1.38C3.166,0.95 2.646,0.613 2.035,0.368C1.425,0.122 0.746,0 0,0L-2.81,0L-2.81,9.731L0,9.731ZM-5.294,-2.26L0.021,-2.26C1.133,-2.26 2.154,-2.08 3.084,-1.721C4.014,-1.361 4.814,-0.862 5.486,-0.225C6.158,0.414 6.678,1.164 7.044,2.025C7.41,2.887 7.594,3.82 7.594,4.825L7.594,4.865C7.594,5.87 7.41,6.806 7.044,7.675C6.678,8.544 6.158,9.297 5.486,9.935C4.814,10.573 4.014,11.075 3.084,11.441C2.154,11.808 1.133,11.991 0.021,11.991L-5.294,11.991L-5.294,-2.26Z" style="fill:rgb(35,31,32);fill-rule:nonzero;"/>
            </g>
        </g>
        <g transform="matrix(4.166667,0,0,4.166667,3383.71875,0)">
            <g transform="matrix(1,0,0,1,104.0862,91.9927)">
                <path d="M0,-0.123C0.898,-0.123 1.613,-0.337 2.145,-0.767C2.675,-1.196 2.94,-1.779 2.94,-2.515L2.94,-2.556C2.94,-3.333 2.682,-3.922 2.164,-4.325C1.647,-4.727 0.919,-4.928 -0.02,-4.928L-3.676,-4.928L-3.676,-0.123L0,-0.123ZM-6.16,-7.187L0.192,-7.187C1.088,-7.187 1.882,-7.062 2.574,-6.811C3.267,-6.56 3.843,-6.21 4.305,-5.762C4.685,-5.369 4.977,-4.914 5.18,-4.398C5.384,-3.882 5.485,-3.312 5.485,-2.688L5.485,-2.647C5.485,-2.064 5.4,-1.538 5.231,-1.07C5.062,-0.602 4.827,-0.187 4.528,0.172C4.23,0.532 3.874,0.837 3.46,1.088C3.046,1.339 2.588,1.533 2.086,1.669L5.934,7.064L2.981,7.064L-0.531,2.096L-3.676,2.096L-3.676,7.064L-6.16,7.064L-6.16,-7.187Z" style="fill:rgb(35,31,32);fill-rule:nonzero;"/>
            </g>
        </g>
        <g transform="matrix(4.166667,0,0,4.166667,3383.71875,0)">
            <g transform="matrix(1,0,0,1,120.7073,99.0562)">
                <path d="M0,-14.251L2.316,-14.251L9.935,-4.397L9.935,-14.251L12.419,-14.251L12.419,0L10.326,0L2.483,-10.139L2.483,0L0,0L0,-14.251Z" style="fill:rgb(35,31,32);fill-rule:nonzero;"/>
            </g>
        </g>
        <g transform="matrix(4.166667,0,0,4.166667,3383.71875,0)">
            <g transform="matrix(1,0,0,1,144.4045,84.5613)">
                <path d="M0,14.739C-1.045,14.739 -2.009,14.549 -2.891,14.169C-3.773,13.789 -4.538,13.27 -5.187,12.612C-5.836,11.953 -6.345,11.176 -6.714,10.281C-7.083,9.385 -7.268,8.428 -7.268,7.41L-7.268,7.369C-7.268,6.351 -7.087,5.398 -6.725,4.509C-6.362,3.62 -5.853,2.84 -5.197,2.168C-4.542,1.496 -3.767,0.967 -2.87,0.58C-1.975,0.193 -0.984,0 0.102,0C0.754,0 1.347,0.054 1.884,0.162C2.419,0.271 2.911,0.424 3.359,0.62C3.808,0.818 4.221,1.051 4.602,1.323C4.981,1.594 5.341,1.893 5.681,2.218L4.072,4.071C3.502,3.542 2.897,3.114 2.26,2.789C1.622,2.463 0.896,2.3 0.082,2.3C-0.598,2.3 -1.225,2.432 -1.802,2.697C-2.379,2.962 -2.877,3.322 -3.298,3.776C-3.719,4.231 -4.045,4.763 -4.275,5.374C-4.506,5.985 -4.621,6.636 -4.621,7.329L-4.621,7.369C-4.621,8.062 -4.506,8.717 -4.275,9.334C-4.045,9.952 -3.719,10.491 -3.298,10.952C-2.877,11.414 -2.379,11.777 -1.802,12.042C-1.225,12.306 -0.598,12.439 0.082,12.439C0.95,12.439 1.696,12.273 2.321,11.94C2.945,11.608 3.563,11.156 4.174,10.586L5.782,12.215C5.416,12.609 5.032,12.958 4.632,13.263C4.231,13.569 3.8,13.833 3.339,14.057C2.877,14.281 2.372,14.451 1.822,14.566C1.272,14.681 0.665,14.739 0,14.739" style="fill:rgb(35,31,32);fill-rule:nonzero;"/>
            </g>
        </g>
        <g transform="matrix(4.166667,0,0,4.166667,3383.71875,0)">
            <g transform="matrix(1,0,0,1,153.7688,99.0562)">
                <path d="M0,-14.251L10.546,-14.251L10.546,-11.991L2.484,-11.991L2.484,-8.327L9.63,-8.327L9.63,-6.067L2.484,-6.067L2.484,-2.26L10.648,-2.26L10.648,0L0,0L0,-14.251Z" style="fill:rgb(35,31,32);fill-rule:nonzero;"/>
            </g>
        </g>
        <g transform="matrix(4.166667,0,0,4.166667,3383.71875,0)">
            <g transform="matrix(1,0,0,1,175.011,87.024)">
                <path d="M0,9.813C0.853,9.813 1.522,9.65 2.01,9.325C2.497,8.999 2.741,8.51 2.741,7.859L2.741,7.818C2.741,7.207 2.5,6.736 2.021,6.403C1.54,6.071 0.806,5.904 -0.182,5.904L-4.141,5.904L-4.141,9.813L0,9.813ZM-0.731,3.787C0.08,3.787 0.729,3.627 1.216,3.309C1.703,2.99 1.947,2.504 1.947,1.853L1.947,1.812C1.947,1.242 1.733,0.798 1.308,0.479C0.881,0.16 0.263,-0 -0.549,-0L-4.141,-0L-4.141,3.787L-0.731,3.787ZM-6.624,-2.219L-0.243,-2.219C1.396,-2.219 2.636,-1.798 3.476,-0.957C4.112,-0.318 4.431,0.469 4.431,1.405L4.431,1.446C4.431,1.88 4.373,2.264 4.259,2.596C4.145,2.929 3.996,3.22 3.814,3.472C3.633,3.723 3.418,3.943 3.168,4.133C2.919,4.323 2.667,4.486 2.411,4.622C2.829,4.771 3.21,4.944 3.555,5.141C3.898,5.338 4.195,5.572 4.445,5.843C4.694,6.115 4.887,6.434 5.022,6.8C5.157,7.167 5.225,7.594 5.225,8.083L5.225,8.124C5.225,8.762 5.099,9.325 4.849,9.813C4.598,10.302 4.242,10.709 3.782,11.035C3.321,11.36 2.766,11.608 2.115,11.778C1.465,11.948 0.746,12.032 -0.039,12.032L-6.624,12.032L-6.624,-2.219Z" style="fill:rgb(35,31,32);fill-rule:nonzero;"/>
            </g>
        </g>
        <g transform="matrix(4.166667,0,0,4.166667,3383.71875,0)">
            <g transform="matrix(1,0,0,1,192.6946,90.3635)">
                <path d="M0,3.033L-2.463,-2.667L-4.906,3.033L0,3.033ZM-3.583,-5.66L-1.262,-5.66L5.009,8.693L2.362,8.693L0.917,5.252L-5.822,5.252L-7.288,8.693L-9.854,8.693L-3.583,-5.66Z" style="fill:rgb(35,31,32);fill-rule:nonzero;"/>
            </g>
        </g>
        <g transform="matrix(4.166667,0,0,4.166667,3383.71875,0)">
            <g transform="matrix(1,0,0,1,208.2073,99.0562)">
                <path d="M0,-14.251L2.484,-14.251L2.484,-8.327L9.324,-8.327L9.324,-14.251L11.809,-14.251L11.809,0L9.324,0L9.324,-6.006L2.484,-6.006L2.484,0L0,0L0,-14.251Z" style="fill:rgb(35,31,32);fill-rule:nonzero;"/>
            </g>
        </g>
        <g transform="matrix(4.166667,0,0,4.166667,3383.71875,0)">
            <g transform="matrix(1,0,0,1,224.6565,99.0562)">
                <path d="M0,-14.251L10.546,-14.251L10.546,-11.991L2.484,-11.991L2.484,-8.327L9.63,-8.327L9.63,-6.067L2.484,-6.067L2.484,-2.26L10.647,-2.26L10.647,0L0,0L0,-14.251Z" style="fill:rgb(35,31,32);fill-rule:nonzero;"/>
            </g>
        </g>
        <g transform="matrix(4.166667,0,0,4.166667,3383.71875,0)">
            <g transform="matrix(1,0,0,1,239.2747,99.0562)">
                <path d="M0,-14.251L2.316,-14.251L9.936,-4.397L9.936,-14.251L12.419,-14.251L12.419,0L10.326,0L2.484,-10.139L2.484,0L0,0L0,-14.251Z" style="fill:rgb(35,31,32);fill-rule:nonzero;"/>
            </g>
        </g>
        <g transform="matrix(4.166667,0,0,4.166667,3383.71875,0)">
            <g transform="matrix(1,0,0,1,256.3342,99.0562)">
                <path d="M0,-14.251L10.546,-14.251L10.546,-11.991L2.484,-11.991L2.484,-8.327L9.63,-8.327L9.63,-6.067L2.484,-6.067L2.484,-2.26L10.647,-2.26L10.647,0L0,0L0,-14.251Z" style="fill:rgb(35,31,32);fill-rule:nonzero;"/>
            </g>
        </g>
    </g>
</svg>
